<?xml version="1.0" encoding="utf-8"?>
<!-- Generator: Adobe Illustrator 25.4.1, SVG Export Plug-In . SVG Version: 6.00 Build 0)  -->
<svg version="1.1" id="Layer_1" xmlns="http://www.w3.org/2000/svg" xmlns:xlink="http://www.w3.org/1999/xlink" x="0px" y="0px"
	 viewBox="0 0 49.19 100" style="enable-background:new 0 0 49.19 100;" xml:space="preserve">
<style type="text/css">
	.st0{fill:#FFFFFF;}
</style>
<path class="st0" d="M6.49,98.23c-2.01,0-3.65-1.64-3.65-3.65v-2.11c0-2.02,1.64-3.65,3.65-3.65h2.78v-0.63
	c0-0.06-0.01-0.13-0.02-0.2l0-2.12c0-1.65,1.13-3.1,2.74-3.53l0.44-0.11l3.47-42.24h-2.98c-2.01,0-3.65-1.64-3.65-3.65v-2.11
	c0-2.01,1.64-3.65,3.65-3.65h2.27l-1.22-1.11c-3.34-3.03-5.26-7.33-5.26-11.79c0-8.77,7.14-15.9,15.91-15.9
	c4.24,0,8.23,1.66,11.24,4.67c3,3.01,4.66,7,4.65,11.23c0,4.47-1.92,8.77-5.26,11.79l-1.22,1.11h2.27c2.01,0,3.65,1.64,3.65,3.65
	v2.11c0,2.01-1.64,3.65-3.65,3.65h-2.34l3.49,42.38l0.34,0.15c1.32,0.58,2.17,1.89,2.17,3.33v2.12c-0.01,0.08-0.02,0.14-0.02,0.2
	v0.63h2.78c0.98,0,1.9,0.38,2.59,1.07c0.69,0.69,1.06,1.61,1.06,2.58v2.12c0,2.02-1.64,3.65-3.65,3.65H6.49z M5.86,95.21h37.48
	v-3.38H5.86V95.21z M12.28,88.6h24.67v-3.38H12.28V88.6z M15.47,82.02h18.91l-3.45-42.04H18.92L15.47,82.02z M12.28,36.96h24.67
	v-3.38H12.28V36.96z M24.61,4.79c-7.11,0-12.89,5.78-12.89,12.88c0,7.11,5.78,12.9,12.89,12.9S37.5,24.79,37.5,17.68
	S31.72,4.79,24.61,4.79z"/>
</svg>
